# xmcd
#
# Track frame offsets: 
#        150
#        18347
#        40647
#        57964
#        74527
#        93140
#        109740
#        124177
#        140758
#        156872
#        177699
#        198971
#        215593
#        231539
#        242869
#        259554
#        274650
#
# Disc length: 3948 seconds
#
# Revision: 0
# Processed by: cddbd v1.5.2PL0 Copyright (c) Steve Scherf et al.
# Submitted via: ExactAudioCopy v1.0b3
#
DISCID=fc0f6a11
DTITLE=Thalía - Habítame Siempre
DYEAR=2013
DGENRE=Pop
TTITLE0=Habítame Siempre
TTITLE1=Con Los Años Que Me Quedan
TTITLE2=Manías
TTITLE3=Te Perdiste Mi Amor (A Dueto Prince Royce)
TTITLE4=No Soy El Aire
TTITLE5=Bésame Mucho (A Dueto con Michael Bublé)
TTITLE6=Regalito De Dios
TTITLE7=Tómame O Déjame
TTITLE8=Muñequita Linda (Te Quiero, Dijiste) (A Dueto Robbie Williams)
TTITLE9=Bésame
TTITLE10=Dime Si Ahora (A Dueto Gilberto Santarosa)
TTITLE11=Ojalá
TTITLE12=La Apuesta (A Dueto Erik Rubín)
TTITLE13=Hoy Ten Miedo De Mí
TTITLE14=Atmósfera
TTITLE15=Vete
TTITLE16=Tu Amor
EXTD=
EXTT0=
EXTT1=
EXTT2=
EXTT3=
EXTT4=
EXTT5=
EXTT6=
EXTT7=
EXTT8=
EXTT9=
EXTT10=
EXTT11=
EXTT12=
EXTT13=
EXTT14=
EXTT15=
EXTT16=
PLAYORDER=
